<?xml version="1.0" encoding="utf-8"?>
<!-- Generator: Adobe Illustrator 27.0.1, SVG Export Plug-In . SVG Version: 6.00 Build 0)  -->
<svg version="1.1" id="Layer_1" xmlns="http://www.w3.org/2000/svg" xmlns:xlink="http://www.w3.org/1999/xlink" x="0px" y="0px"
	 viewBox="0 0 947.6 263.1" style="enable-background:new 0 0 947.6 263.1;" xml:space="preserve">
<g>
	<g>
		<path d="M426.4,101.6l-28.8,90h-28.4l-28.8-90h18.9l22.7,70.9h2.9l22.7-70.9H426.4z"/>
		<path d="M513.1,155.6h-59c1.6,10.3,7.4,18,27,18c7.2,0,14.2,0,25.9-3.2V188c-14,3.6-19.1,3.6-25.9,3.6c-40.7,0-45.7-29-45.7-45
			c0-26.5,11.2-45,38.9-45c27.7,0,38.9,16.7,38.9,43.2V155.6z M453.6,137.6h41.6c-0.7-13.1-6.7-18-20.9-18
			C460.8,119.6,454.6,125.5,453.6,137.6z"/>
		<path d="M583.7,119.6h-34.6v72h-18v-90h52.6V119.6z"/>
		<path d="M633.9,101.6c23.6,0,37.4,14.6,37.4,34.2h-18c-0.7-9.4-4.5-16.2-18.5-16.2c-16.7,0-23.2,5.4-23.2,27
			c0,21.6,6.5,27,23.2,27c14,0,17.8-6.8,18.5-16.2h18c0,19.6-13.9,34.2-37.4,34.2c-26.5,0-40.3-18.5-40.3-45
			C593.6,120.1,607.4,101.6,633.9,101.6z"/>
		<path d="M763.5,155.6h-59c1.6,10.3,7.4,18,27,18c7.2,0,14.2,0,25.9-3.2V188c-14,3.6-19.1,3.6-25.9,3.6c-40.7,0-45.7-29-45.7-45
			c0-26.5,11.2-45,38.9-45c27.7,0,38.9,16.7,38.9,43.2V155.6z M703.9,137.6h41.6c-0.7-13.1-6.7-18-20.9-18
			C711.1,119.6,705,125.5,703.9,137.6z"/>
		<path d="M865.7,146.6c0,26.5-10.3,45-39.4,45c-12.6,0-21.4-4.9-26.8-10.8v40.8h-18v-120h18v10.8c5.4-5.9,14.2-10.8,26.8-10.8
			C855.5,101.6,865.7,120.1,865.7,146.6z M847.7,146.6c0-21.6-6.5-27-24.1-27c-17.6,0-24.1,5.4-24.1,27c0,21.6,6.5,27,24.1,27
			C841.3,173.6,847.7,168.2,847.7,146.6z"/>
		<path d="M907.1,119.6v54h23.8v18h-41.8v-72h-14.4v-18h14.4v-30h18v30h23.8v18H907.1z"/>
	</g>
	<g>
		<path d="M145.3,191.6l-45.1-180H10.4v30h13.5c14.1,0,26.4,9.6,29.8,23.2l46.8,186.8h40v0h50v-60H145.3z"/>
		<rect x="190.4" y="71.6" width="50" height="120"/>
		<rect x="240.4" y="11.6" width="50" height="60"/>
	</g>
</g>
</svg>
